<svg width="30" height="30" viewBox="0 0 30 30" fill="none" xmlns="http://www.w3.org/2000/svg">
<path d="M15.1008 5.90052C15.2145 5.83222 15.3506 5.81187 15.4793 5.84396L18.8753 6.69068C19.1323 6.75474 19.2927 7.00685 19.2466 7.26369C21.6107 8.37085 23.3712 10.1946 24.0608 12.2466C24.1341 12.4648 24.0491 12.7048 23.8547 12.8281C23.6604 12.9514 23.4069 12.9261 23.2408 12.7668C22.0304 11.6061 20.4468 10.5956 18.5991 9.86539L18.5743 9.9651C18.5422 10.0938 18.4603 10.2044 18.3466 10.2727C18.233 10.341 18.0968 10.3614 17.9681 10.3293L17.483 10.2083L16.5758 13.8469C16.8437 13.9137 17.0068 14.1851 16.94 14.453L14.6417 23.6709C14.6096 23.7995 14.5278 23.9102 14.4141 23.9785C14.3004 24.0468 14.1643 24.0671 14.0356 24.035L11.6099 23.4302C11.3419 23.3634 11.1789 23.0921 11.2457 22.8241L13.5439 13.6063C13.576 13.4777 13.6579 13.367 13.7716 13.2987C13.8852 13.2304 14.0214 13.2101 14.1501 13.2421L15.0573 9.60353L14.5721 9.48256C14.3042 9.41576 14.1411 9.1444 14.2079 8.87646L14.2328 8.77675C12.2585 8.55403 10.3859 8.70285 8.77225 9.1594C8.55078 9.22206 8.31515 9.12544 8.20142 8.92534C8.0877 8.72524 8.12526 8.47336 8.29243 8.31514C9.86465 6.8271 12.2754 6.04328 14.8825 6.17559C14.9195 6.06088 14.9969 5.96299 15.1008 5.90052Z" fill="black"/>
</svg>
